# File created by Blade
# Date/Time:  Wed Jan 21 14:28:00 2015
#---------------------------------------------------------
:version 1.10
:name HOM
:units
  mass 1.0
  length 1.000000
  angle deg
:documentation
     Acclaim Skeleton File
:root
   axis xyz
   order TX TY TZ RX RY RZ
   position 0.000000 0.000000 0.000000
   orientation 0 0 0
:bonedata
   begin
      id 1
      name Spine_dum
      direction 0.000000 1.000000 0.000000
      length 7.067664
      axis 0.0 0.0 0.0 xyz
   end
   begin
      id 2
      name LeftUpLeg_dum
      direction 1.000000 0.000000 0.000000
      length 4.013002
      axis 0.0 0.0 0.0 xyz
   end
   begin
      id 3
      name RightUpLeg_dum
      direction -1.000000 0.000000 0.000000
      length 4.013002
      axis 0.0 0.0 0.0 xyz
   end
   begin
      id 4
      name Spine
      direction 0.000000 1.000000 0.000000
      length 0.000000
      axis 0.0 0.0 0.0 xyz
      dof rx ry rz
   end
   begin
      id 5
      name Spine_dum1
      direction 0.000000 1.000000 0.000000
      length 15.039886
      axis 0.0 0.0 0.0 xyz
   end
   begin
      id 6
      name Spine_dum2
      direction 0.000000 1.000000 0.000000
      length 10.530368
      axis 0.0 0.0 0.0 xyz
   end
   begin
      id 7
      name Spine_dum3
      direction 0.000000 1.000000 0.000000
      length 10.530368
      axis 0.0 0.0 0.0 xyz
   end
   begin
      id 8
      name Head
      direction 0.000000 1.000000 0.000000
      length 4.527550
      axis 0.0 0.0 0.0 xyz
      dof rx ry rz
   end
   begin
      id 9
      name LeftShoulder
      direction 1.000000 0.000000 0.000000
      length 7.028855
      axis 0.0 0.0 -90.0 xyz
      dof rx ry rz
   end
   begin
      id 10
      name LeftArm
      direction 1.000000 0.000000 0.000000
      length 10.797705
      axis 0.0 0.0 -90.0 xyz
      dof rx ry rz
   end
   begin
      id 11
      name LeftForeArm
      direction 1.000000 0.000000 0.000000
      length 7.907442
      axis 0.0 0.0 -90.0 xyz
      dof ry rz rx
   end
   begin
      id 12
      name LeftHand
      direction 0.000000 0.000000 0.000000
      length 0.000000
      axis 0.0 0.0 -90.0 xyz
      dof rx ry rz
   end
   begin
      id 13
      name LeftHand_dum1
      direction 0.000000 0.000000 0.000000
      length 0.000000
      axis 0.0 0.0 -90.0 xyz
   end
   begin
      id 14
      name LeftHand_dum2
      direction 1.000000 0.000000 0.000000
      length 3.937000
      axis 0.0 0.0 -90.0 xyz
   end
   begin
      id 15
      name LeftHandThumb1
      direction 0.000000 0.000000 1.000000
      length 3.937000
      axis 0.0 0.0 -90.0 xyz
      dof rx rz ry
   end
   begin
      id 16
      name RightShoulder
      direction -1.000000 0.000000 0.000000
      length 7.028855
      axis 0.0 0.0 90.0 xyz
      dof rx ry rz
   end
   begin
      id 17
      name RightArm
      direction -1.000000 0.000000 0.000000
      length 10.797705
      axis 0.0 0.0 90.0 xyz
      dof rx ry rz
   end
   begin
      id 18
      name RightForeArm
      direction -1.000000 0.000000 0.000000
      length 7.907442
      axis 0.0 0.0 90.0 xyz
      dof ry rz rx
   end
   begin
      id 19
      name RightHand
      direction 0.000000 0.000000 0.000000
      length 0.000000
      axis 0.0 0.0 90.0 xyz
      dof rx ry rz
   end
   begin
      id 20
      name RightHand_dum1
      direction 0.000000 0.000000 0.000000
      length 0.000000
      axis 0.0 0.0 90.0 xyz
   end
   begin
      id 21
      name RightHand_dum2
      direction -1.000000 0.000000 0.000000
      length 3.937000
      axis 0.0 0.0 90.0 xyz
   end
   begin
      id 22
      name RightHandThumb1
      direction 0.000000 0.000000 1.000000
      length 3.937000
      axis 0.0 0.0 90.0 xyz
      dof rx rz ry
   end
   begin
      id 23
      name LeftUpLeg
      direction 0.000000 -1.000000 0.000000
      length 16.899758
      axis 0.0 0.0 0.0 xyz
      dof rx ry rz
   end
   begin
      id 24
      name LeftLeg
      direction 0.000000 -1.000000 0.000000
      length 17.389183
      axis 0.0 0.0 0.0 xyz
      dof rx ry rz
   end
   begin
      id 25
      name LeftFoot
      direction 0.000000 -0.258819 0.965926
      length 4.924528
      axis 15.0 0.0 0.0 xyz
      dof rx ry rz
   end
   begin
      id 26
      name LeftToeBase
      direction 0.000000 0.000000 1.000000
      length 2.952750
      axis 0.0 0.0 0.0 xyz
      dof rx ry rz
   end
   begin
      id 27
      name RightUpLeg
      direction 0.000000 -1.000000 0.000000
      length 16.899758
      axis 0.0 0.0 0.0 xyz
      dof rx ry rz
   end
   begin
      id 28
      name RightLeg
      direction 0.000000 -1.000000 0.000000
      length 17.389183
      axis 0.0 0.0 0.0 xyz
      dof rx ry rz
   end
   begin
      id 29
      name RightFoot
      direction 0.000000 -0.258819 0.965926
      length 4.924528
      axis 15.0 0.0 0.0 xyz
      dof rx ry rz
   end
   begin
      id 30
      name RightToeBase
      direction 0.000000 0.000000 1.000000
      length 2.952750
      axis 0.0 0.0 0.0 xyz
      dof rx ry rz
   end
:hierarchy
   begin
      root Spine_dum LeftUpLeg_dum RightUpLeg_dum
      Spine_dum Spine
      LeftUpLeg_dum LeftUpLeg
      RightUpLeg_dum RightUpLeg
      Spine Spine_dum1 Spine_dum2 Spine_dum3
      Spine_dum1 Head
      Spine_dum2 LeftShoulder
      Spine_dum3 RightShoulder
      LeftShoulder LeftArm
      LeftArm LeftForeArm
      LeftForeArm LeftHand
      LeftHand LeftHand_dum1 LeftHand_dum2
      LeftHand_dum1 LeftHandThumb1
      RightShoulder RightArm
      RightArm RightForeArm
      RightForeArm RightHand
      RightHand RightHand_dum1 RightHand_dum2
      RightHand_dum1 RightHandThumb1
      LeftUpLeg LeftLeg
      LeftLeg LeftFoot
      LeftFoot LeftToeBase
      RightUpLeg RightLeg
      RightLeg RightFoot
      RightFoot RightToeBase
   end

# File created by Blade
# Date/Time:  Wed Jan 21 14:28:11 2015
# Frame Rate: 120.000 fps
#------------------------------------------------------
:FULLY-SPECIFIED
:DEGREES
82
root 18.858747 35.448962 -20.666793 -172.558981 -3.391358 -178.647028
Spine -13.561797 -0.779922 1.442243
Head 5.012912 -0.573865 -0.471325
LeftShoulder -16.815362 -18.813814 3.972442
LeftArm -28.239497 19.328154 -60.482531
LeftForeArm 12.581317 -0.000000 12.151937
LeftHand -3.278564 -0.000000 -12.711247
LeftHandThumb1 -26.253704 0.000000 33.147579
RightShoulder -15.339852 -14.168320 3.877078
RightArm -2.118426 12.391904 54.731071
RightForeArm -43.339180 0.000000 17.113136
RightHand -0.959995 -0.000000 13.030189
RightHandThumb1 -24.326973 -0.000000 -32.862282
LeftUpLeg -0.268139 8.516437 2.394495
LeftLeg -6.764862 -0.000000 0.000000
LeftFoot -19.136811 27.222791 -10.272470
LeftToeBase 28.289192 -0.000000 -0.000000
RightUpLeg -1.595928 -12.749067 0.130445
RightLeg -3.434941 -0.000000 0.000000
RightFoot -19.756191 -22.338923 14.927879
RightToeBase 25.946155 -0.000000 -0.000000
83
root 18.854283 35.447940 -20.686032 -172.609975 -3.399182 -178.646170
Spine -13.551895 -0.876035 1.475646
Head 5.171562 -0.469810 -0.468806
LeftShoulder -16.987218 -18.451194 3.649554
LeftArm -28.935404 18.854754 -61.807984
LeftForeArm 12.804640 -0.000000 11.781342
LeftHand -3.429495 -0.000000 -13.631510
LeftHandThumb1 -26.253704 0.000000 33.147579
RightShoulder -15.561590 -14.495541 4.145251
RightArm -1.987138 11.618052 55.884062
RightForeArm -43.693938 -0.000000 16.261720
RightHand -0.686711 -0.000000 13.811896
RightHandThumb1 -24.326973 -0.000000 -32.862282
LeftUpLeg -0.196654 8.510189 2.404562
LeftLeg -6.739562 -0.000000 0.000000
LeftFoot -19.190129 27.196494 -10.280073
LeftToeBase 28.320216 -0.000000 -0.000000
RightUpLeg -1.503731 -12.734201 0.106042
RightLeg -3.443588 -0.000000 0.000000
RightFoot -19.774049 -22.340959 15.035941
RightToeBase 25.807174 -0.000000 -0.000000
84
root 18.849748 35.446836 -20.697650 -172.646671 -3.364608 -178.643510
Spine -13.525705 -0.935414 1.474882
Head 5.272901 -0.399418 -0.376781
LeftShoulder -17.202974 -18.075126 3.391414
LeftArm -29.512147 18.263004 -63.068655
LeftForeArm 12.926654 -0.000000 11.310051
LeftHand -3.580589 0.000000 -14.388696
LeftHandThumb1 -26.253704 0.000000 33.147579
RightShoulder -15.670579 -14.750570 4.435565
RightArm -2.174447 9.883291 56.947585
RightForeArm -43.346010 -0.000000 15.891122
RightHand -0.872330 -0.000000 14.400183
RightHandThumb1 -24.326973 -0.000000 -32.862282
LeftUpLeg -0.147548 8.529203 2.406074
LeftLeg -6.714293 -0.000000 0.000000
LeftFoot -19.226097 27.209958 -10.274648
LeftToeBase 28.320821 -0.000000 -0.000000
RightUpLeg -1.476245 -12.722974 0.092145
RightLeg -3.403172 -0.000000 0.000000
RightFoot -19.828877 -22.319371 15.084420
RightToeBase 25.823073 -0.000000 -0.000000
85
root 18.845319 35.447142 -20.710074 -172.693912 -3.305918 -178.637337
Spine -13.488593 -0.954037 1.480785
Head 5.361880 -0.365507 -0.326047
LeftShoulder -17.419639 -17.799427 3.125965
LeftArm -30.101885 17.565174 -64.191958
LeftForeArm 13.209851 -0.000000 10.774889
LeftHand -3.630335 0.000000 -15.079671
LeftHandThumb1 -26.253704 0.000000 33.147579
RightShoulder -15.778083 -14.985087 4.705790
RightArm -2.421723 8.152055 57.996658
RightForeArm -42.799895 -0.000000 15.640208
RightHand -0.972987 -0.000000 14.911440
RightHandThumb1 -24.326973 -0.000000 -32.862282
LeftUpLeg -0.090549 8.576830 2.411020
LeftLeg -6.672454 -0.000000 0.000000
LeftFoot -19.267978 27.216673 -10.279434
LeftToeBase 28.263650 -0.000000 -0.000000
RightUpLeg -1.440679 -12.668521 0.073225
RightLeg -3.352860 -0.000000 0.000000
RightFoot -19.824877 -22.299725 15.082774
RightToeBase 25.768621 -0.000000 -0.000000
86
root 18.842117 35.447460 -20.724081 -172.756002 -3.248485 -178.627190
Spine -13.434462 -0.974360 1.489523
Head 5.431169 -0.320405 -0.283195
LeftShoulder -17.654180 -17.591396 2.919435
LeftArm -30.825122 17.370296 -65.591217
LeftForeArm 13.065466 -0.000000 10.271515
LeftHand -3.793617 -0.000000 -15.512360
LeftHandThumb1 -26.253704 0.000000 33.147579
RightShoulder -15.916642 -15.319332 4.968448
RightArm -2.482302 6.768087 59.071310
RightForeArm -42.434018 0.000000 15.193750
RightHand -0.767163 -0.000000 15.337706
RightHandThumb1 -24.326973 -0.000000 -32.862282
LeftUpLeg -0.014408 8.585067 2.427667
LeftLeg -6.631021 -0.000000 0.000000
LeftFoot -19.328954 27.239263 -10.311005
LeftToeBase 28.249463 -0.000000 -0.000000
RightUpLeg -1.393463 -12.607042 0.057073
RightLeg -3.288797 -0.000000 0.000000
RightFoot -19.902319 -22.350776 15.063268
RightToeBase 25.957595 -0.000000 -0.000000
87
root 18.840970 35.447830 -20.739535 -172.827846 -3.214506 -178.619660
Spine -13.365367 -1.003594 1.498834
Head 5.478638 -0.299781 -0.272789
LeftShoulder -17.860316 -17.438656 2.706083
LeftArm -31.708242 17.541040 -67.164288
LeftForeArm 12.788393 -0.000000 9.978483
LeftHand -4.055224 -0.000000 -16.103208
LeftHandThumb1 -26.253704 0.000000 33.147579
RightShoulder -16.103721 -15.655466 5.233077
RightArm -2.541117 5.344374 60.124761
RightForeArm -41.794460 0.000000 14.776544
RightHand -0.586548 -0.000000 15.612599
RightHandThumb1 -24.326973 -0.000000 -32.862282
LeftUpLeg 0.062294 8.557539 2.448761
LeftLeg -6.573145 -0.000000 0.000000
LeftFoot -19.392972 27.283792 -10.334502
LeftToeBase 28.284384 -0.000000 -0.000000
RightUpLeg -1.322234 -12.584707 0.044629
RightLeg -3.249282 -0.000000 0.000000
RightFoot -19.923794 -22.325130 15.177854
RightToeBase 25.738946 -0.000000 -0.000000
88
root 18.838915 35.448526 -20.751947 -172.896101 -3.161415 -178.610479
Spine -13.296759 -1.002580 1.516715
Head 5.527943 -0.265507 -0.288456
LeftShoulder -18.028821 -17.261836 2.507396
LeftArm -32.527096 17.663231 -68.751674
LeftForeArm 12.609791 -0.000000 9.618011
LeftHand -4.158016 -0.000000 -16.121304
LeftHandThumb1 -26.253704 0.000000 33.147579
RightShoulder -16.279812 -15.969508 5.454244
RightArm -2.520828 5.013543 61.187728
RightForeArm -41.917938 -0.000000 14.152249
RightHand -0.185448 0.000000 16.085328
RightHandThumb1 -24.326973 -0.000000 -32.862282
LeftUpLeg 0.126172 8.566967 2.465416
LeftLeg -6.503373 -0.000000 0.000000
LeftFoot -19.462611 27.308444 -10.363073
LeftToeBase 28.234691 -0.000000 -0.000000
RightUpLeg -1.287084 -12.538019 0.031756
RightLeg -3.150614 -0.000000 0.000000
RightFoot -19.980517 -22.334086 15.188548
RightToeBase 25.707298 -0.000000 -0.000000
89
root 18.835801 35.448922 -20.766868 -172.980948 -3.060826 -178.595877
Spine -13.228639 -0.942583 1.534373
Head 5.610922 -0.235852 -0.311332
LeftShoulder -18.148229 -16.988335 2.311028
LeftArm -33.234421 17.702115 -70.332562
LeftForeArm 12.860977 -0.000000 9.246127
LeftHand -4.270610 -0.000000 -16.722635
LeftHandThumb1 -26.253704 0.000000 33.147579
RightShoulder -16.482822 -16.370841 5.678037
RightArm -2.383981 5.001522 62.234179
RightForeArm -42.242231 0.000000 13.399529
RightHand 0.379243 -0.000000 16.602133
RightHandThumb1 -24.326973 -0.000000 -32.862282
LeftUpLeg 0.233381 8.600479 2.484747
LeftLeg -6.462840 -0.000000 0.000000
LeftFoot -19.531790 27.359022 -10.400356
LeftToeBase 28.267732 -0.000000 -0.000000
RightUpLeg -1.248841 -12.461822 0.018901
RightLeg -3.043706 -0.000000 0.000000
RightFoot -20.017520 -22.349496 15.111455
RightToeBase 26.011391 -0.000000 -0.000000
90
root 18.834983 35.449024 -20.781610 -173.048570 -2.975782 -178.579428
Spine -13.177711 -0.885743 1.549748
Head 5.686288 -0.227961 -0.335071
LeftShoulder -18.236648 -16.754461 2.136312
LeftArm -34.060789 17.953473 -72.039982
LeftForeArm 12.714472 -0.000000 9.034143
LeftHand -4.333786 -0.000000 -16.665544
LeftHandThumb1 -26.253704 0.000000 33.147579
RightShoulder -16.705914 -16.744857 5.929587
RightArm -2.400507 4.448713 63.231699
RightForeArm -42.050221 0.000000 12.975692
RightHand 0.537218 -0.000000 16.841583
RightHandThumb1 -24.326973 -0.000000 -32.862282
LeftUpLeg 0.310797 8.645873 2.508607
LeftLeg -6.404519 -0.000000 0.000000
LeftFoot -19.595594 27.383516 -10.415836
LeftToeBase 28.218278 -0.000000 -0.000000
RightUpLeg -1.220294 -12.391645 0.014626
RightLeg -2.945357 -0.000000 0.000000
RightFoot -20.094640 -22.355981 15.176194
RightToeBase 25.854449 -0.000000 -0.000000
91
root 18.833403 35.449084 -20.794964 -173.114121 -2.939360 -178.571205
Spine -13.122181 -0.898196 1.550431
Head 5.743412 -0.186658 -0.322135
LeftShoulder -18.336166 -16.476841 2.005986
LeftArm -34.842142 18.160690 -73.766862
LeftForeArm 12.807259 -0.000000 8.880720
LeftHand -4.381134 -0.000000 -16.785682
LeftHandThumb1 -26.253704 0.000000 33.147579
RightShoulder -16.828486 -16.964411 6.163822
RightArm -2.736663 3.126204 64.152513
RightForeArm -41.166112 -0.000000 12.916662
RightHand 0.364222 0.000000 16.959842
RightHandThumb1 -24.326973 -0.000000 -32.862282
LeftUpLeg 0.357868 8.622300 2.527258
LeftLeg -6.308365 -0.000000 0.000000
LeftFoot -19.686615 27.428661 -10.428107
LeftToeBase 28.257734 -0.000000 -0.000000
RightUpLeg -1.193929 -12.413368 0.006086
RightLeg -2.840312 -0.000000 0.000000
RightFoot -20.140705 -22.310297 15.168749
RightToeBase 25.873583 -0.000000 -0.000000
92
root 18.834776 35.448649 -20.809167 -173.166083 -2.875801 -178.534821
Spine -13.096846 -0.880438 1.572582
Head 5.811329 -0.159966 -0.303855
LeftShoulder -18.430354 -16.159414 1.936477
LeftArm -35.586095 18.335739 -75.551436
LeftForeArm 12.796749 0.000000 8.730255
LeftHand -4.539660 -0.000000 -17.174030
LeftHandThumb1 -26.253704 0.000000 33.147579
RightShoulder -16.938566 -17.143025 6.383709
RightArm -3.174910 1.945388 65.070228
RightForeArm -40.334157 -0.000000 13.009746
RightHand 0.090323 -0.000000 16.995347
RightHandThumb1 -24.326973 -0.000000 -32.862282
LeftUpLeg 0.417594 8.617346 2.573865
LeftLeg -6.254895 -0.000000 0.000000
LeftFoot -19.758276 27.489365 -10.445541
LeftToeBase 28.198984 -0.000000 -0.000000
RightUpLeg -1.175229 -12.412456 0.028477
RightLeg -2.750447 -0.000000 0.000000
RightFoot -20.174227 -22.237418 15.190388
RightToeBase 25.818450 -0.000000 -0.000000
